<?xml version="1.0" encoding="UTF-8"?><svg id="Layer_2" xmlns="http://www.w3.org/2000/svg" viewBox="0 0 326.7 216.42"><defs><style>.cls-1{stroke-linecap:square;}.cls-1,.cls-2{fill:#fff;stroke:#898989;stroke-linejoin:round;}.cls-1,.cls-2,.cls-3{stroke-width:8px;}.cls-3{fill:#faee00;stroke:#a59a00;stroke-miterlimit:10;}</style></defs><g id="_レイヤー_1"><g id="_レイヤー_2"><g><g><path class="cls-1" d="M82.36,192.95c-8.99,1.18-17.9,2.96-26.62,5.34l-51.74,14.13,38.06-34.07-38.06-14.55,51.74-14.13c8.61-2.35,17.39-4.11,26.26-5.29l.36,48.57"/><path class="cls-1" d="M244.34,192.55c8.99,1.18,17.9,2.96,26.62,5.34l51.74,14.13-38.06-34.07,38.06-14.55-51.74-14.13c-8.61-2.35-17.39-4.11-26.26-5.29l-.36,48.57"/><path class="cls-2" d="M268.76,178.46l-52.73-14.25c-34.46-9.31-71.72-9.27-106.14,.13l-51.74,14.13v-48.62l51.74-14.13c34.42-9.4,71.68-9.44,106.14-.13l52.73,14.25v48.62Z"/><polygon class="cls-3" points="73.58 64.39 89.01 81.98 112.25 79.23 100.3 99.35 110.09 120.6 87.26 115.45 70.07 131.32 67.92 108.02 47.51 96.58 69.01 87.34 73.58 64.39"/></g><polygon class="cls-3" points="253.59 64.74 258.17 87.69 279.66 96.93 259.25 108.37 257.1 131.68 239.91 115.8 217.09 120.95 226.88 99.7 214.92 79.59 238.16 82.33 253.59 64.74"/><polygon class="cls-3" points="163.73 9.04 181.69 45.42 221.84 51.26 192.78 79.58 199.64 119.57 163.73 100.69 127.82 119.57 134.67 79.58 105.62 51.26 145.77 45.42 163.73 9.04"/></g></g></g></svg>